<?xml version="1.0" standalone="no"?>
<!DOCTYPE svg PUBLIC "-//W3C//DTD SVG 20010904//EN"
 "http://www.w3.org/TR/2001/REC-SVG-20010904/DTD/svg10.dtd">
<svg version="1.0" xmlns="http://www.w3.org/2000/svg"
 width="950.000000pt" height="950.000000pt" viewBox="0 0 950.000000 950.000000"
 preserveAspectRatio="xMidYMid meet">
<metadata>
Created by potrace 1.14, written by Peter Selinger 2001-2017
</metadata>
<g transform="translate(0.000000,950.000000) scale(0.100000,-0.100000)"
fill="#000000" stroke="none">
<path d="M8030 7950 c-120 -15 -449 -122 -690 -224 -110 -46 -155 -46 -299 -1
-190 59 -257 70 -451 70 -148 0 -191 -4 -280 -24 -311 -70 -639 -230 -898
-439 -253 -203 -423 -415 -623 -776 -49 -89 -85 -122 -121 -113 -12 4 -88 50
-168 103 -297 199 -625 328 -895 352 -444 41 -938 -139 -1470 -536 -156 -117
-256 -176 -315 -187 -21 -4 -67 1 -115 12 -182 40 -406 12 -650 -82 -249 -96
-360 -169 -561 -369 -152 -152 -215 -232 -261 -332 -23 -52 -24 -59 -21 -241
l3 -188 38 -85 c52 -115 120 -233 245 -430 176 -277 223 -326 352 -371 54 -19
85 -22 180 -21 97 0 132 5 225 32 117 33 258 95 311 135 46 35 84 117 84 180
0 73 -25 139 -128 332 -94 178 -124 241 -149 312 -37 109 -22 107 40 -7 27
-48 106 -179 175 -291 150 -241 222 -324 314 -367 57 -26 72 -29 158 -27 103
1 167 17 945 233 578 160 1009 272 1057 274 57 1 93 -22 126 -83 28 -49 24
-83 -13 -107 -14 -9 -73 -34 -132 -56 -273 -100 -399 -201 -503 -403 -40 -77
-48 -117 -18 -87 7 7 16 12 22 12 5 0 -4 -15 -22 -33 -18 -18 -32 -43 -32 -56
0 -20 8 -15 66 38 37 34 71 61 75 61 20 0 5 -17 -46 -54 -80 -57 -85 -66 -105
-163 -20 -99 -56 -186 -128 -306 -183 -304 -303 -584 -368 -864 -25 -104 -28
-138 -29 -288 0 -194 16 -272 83 -399 40 -76 135 -185 211 -240 110 -81 271
-143 461 -177 114 -21 136 -21 1730 -22 1780 0 1674 -4 1793 61 202 109 396
479 494 941 24 112 27 148 28 326 0 171 -3 208 -19 255 -29 84 -55 131 -95
173 -78 83 -177 110 -369 100 -129 -6 -299 8 -394 33 -147 38 -253 115 -309
225 -31 62 -36 67 -59 47 -8 -7 -7 -4 2 7 16 20 15 23 -48 94 -57 64 -81 106
-200 349 -74 152 -134 285 -132 297 5 33 69 23 198 -33 142 -62 209 -82 272
-82 92 0 78 10 -321 238 -146 84 -269 153 -275 155 -6 3 -9 6 -6 9 3 2 123 56
267 119 144 63 263 116 263 119 0 3 -132 52 -292 109 -161 57 -304 108 -318
114 -22 8 -12 13 76 38 56 15 389 116 740 223 352 107 736 224 854 260 118 36
235 72 259 80 60 22 77 19 21 -3 -25 -10 -395 -152 -822 -316 -428 -164 -778
-301 -778 -304 0 -7 510 -202 528 -201 31 0 4 64 -58 135 -22 25 -40 55 -40
66 0 32 71 73 257 149 306 124 451 189 676 302 194 97 277 147 486 292 l55 37
120 -6 c296 -17 615 104 735 278 16 24 40 73 53 108 23 63 23 72 22 424 -1
316 -3 373 -21 470 -54 296 -191 445 -486 529 -121 35 -358 83 -437 89 -36 3
-94 2 -130 -3z m153 -124 c12 -7 78 -24 147 -36 278 -51 419 -101 507 -182
127 -118 157 -284 151 -843 -4 -377 -1 -367 -100 -409 -35 -14 -106 -37 -158
-50 -114 -29 -348 -72 -354 -65 -2 2 -9 110 -16 239 -22 458 -51 644 -128 805
-98 204 -258 297 -557 324 -55 5 -133 8 -172 7 -40 -1 -73 -1 -73 0 0 5 523
176 605 198 107 29 119 30 148 12z m-683 -395 c289 -102 370 -142 451 -223 50
-49 72 -79 89 -124 45 -118 52 -189 57 -559 4 -337 3 -351 -16 -382 -29 -46
-57 -61 -178 -93 -59 -15 -251 -67 -425 -114 -174 -47 -324 -83 -333 -80 -9 4
-25 -2 -37 -12 -17 -15 -20 -16 -16 -3 6 14 -1 14 -60 -3 -97 -27 -97 -23 3
30 549 288 737 793 414 1112 -155 153 -395 239 -680 243 -70 1 -125 5 -123 9
10 16 223 152 298 190 221 112 263 113 556 9z m-505 -426 c94 -24 200 -81 259
-139 125 -121 143 -256 59 -426 -67 -137 -293 -340 -379 -340 -36 0 -55 18
-77 76 -9 23 -37 74 -62 113 -79 123 -120 218 -120 282 0 50 5 63 47 126 26
39 52 82 58 97 13 35 13 111 -1 159 -15 57 -2 67 85 67 40 0 99 -7 131 -15z
m-518 -11 c7 -19 -23 -48 -160 -151 -319 -242 -557 -486 -601 -616 -33 -97 -8
-193 69 -269 l38 -38 -34 0 c-86 0 -196 47 -269 116 -165 155 -130 389 92 607
192 189 573 363 801 366 44 1 59 -3 64 -15z m111 -560 c31 -123 57 -170 144
-254 83 -79 95 -105 52 -116 -101 -26 -259 138 -295 306 -14 65 -5 115 28 147
33 34 45 21 71 -83z m-211 -211 c11 -10 43 -47 71 -83 27 -36 73 -87 102 -114
28 -27 50 -56 48 -65 -12 -59 -216 -111 -438 -111 -137 0 -203 11 -279 46
l-56 25 65 22 c78 27 210 111 305 197 113 102 145 116 182 83z m-2951 -64
c264 -29 455 -128 533 -274 22 -43 26 -62 26 -135 0 -75 -4 -91 -30 -138 -30
-56 -54 -76 -78 -66 -8 3 -35 29 -61 59 -98 114 -143 134 -571 251 -459 126
-506 143 -490 187 15 38 249 103 419 116 149 12 149 12 252 0z m-1194 -67
l118 -28 -92 -64 c-244 -172 -398 -402 -415 -618 -10 -141 44 -287 148 -392
209 -212 559 -294 989 -232 128 19 243 46 265 62 6 4 44 20 85 35 189 71 366
179 493 303 144 140 295 361 313 459 5 25 10 32 23 28 9 -2 192 -45 406 -95
215 -50 398 -93 407 -96 12 -4 37 23 94 98 92 122 291 377 310 397 11 12 20 8
61 -30 68 -64 157 -111 308 -162 214 -73 264 -82 473 -82 120 0 185 4 190 11
7 11 122 38 129 30 2 -2 -20 -9 -49 -16 -64 -15 -90 -28 -83 -40 3 -5 0 -12
-6 -16 -8 -4 -9 -3 -5 4 10 17 -9 15 -84 -7 -36 -10 -64 -23 -63 -28 1 -5 -4
-10 -12 -10 -8 0 -11 5 -8 10 3 5 0 8 -6 6 -7 -3 -12 -9 -12 -14 0 -14 16 -9
-469 -140 -239 -65 -438 -121 -442 -124 -4 -4 22 -28 58 -54 37 -27 65 -50 63
-52 -2 -2 -69 -11 -149 -19 -79 -9 -149 -21 -155 -27 -7 -9 -3 -10 15 -6 14 3
93 8 175 11 163 6 153 -7 -15 -19 -156 -12 -131 -21 43 -17 207 5 212 2 138
-90 -77 -95 -62 -107 19 -15 23 26 49 47 59 47 10 0 31 -15 48 -34 l30 -35
-29 -28 c-37 -35 -77 -90 -57 -78 7 4 33 23 56 41 83 67 126 70 189 12 70 -65
106 -150 125 -299 9 -65 15 -89 26 -89 8 0 20 -15 28 -32 l15 -33 -73 -69
c-61 -58 -66 -65 -32 -45 22 12 59 35 82 51 61 41 66 16 7 -38 l-49 -44 58 25
c63 27 83 26 67 -6 -9 -16 -7 -19 10 -19 23 0 68 -85 171 -318 33 -75 76 -164
94 -197 l33 -60 -32 -55 c-18 -30 -45 -77 -61 -104 -38 -64 -19 -52 30 19 21
30 40 53 42 52 2 -2 -4 -20 -12 -40 -24 -59 -18 -56 29 13 24 36 54 74 67 85
l24 20 -22 -25 c-16 -18 -19 -30 -13 -40 8 -13 13 -13 32 -1 22 13 23 13 6 -6
-10 -11 -18 -24 -18 -29 0 -18 183 -190 230 -217 134 -78 280 -108 518 -107
115 0 172 -4 172 -11 0 -6 -5 -20 -12 -32 -7 -14 6 -6 35 21 54 49 93 55 157
22 48 -25 82 -74 107 -155 24 -81 24 -338 -1 -475 -82 -451 -271 -842 -458
-945 l-53 -30 -1620 0 -1620 0 -120 23 c-419 79 -615 250 -656 572 -31 244 68
619 265 996 273 522 690 898 1156 1040 71 22 73 23 34 23 -58 1 -187 -25 -274
-54 -41 -14 -75 -25 -76 -25 -10 0 12 39 24 43 86 27 312 116 294 117 -30 0
-348 -106 -461 -154 -47 -20 -86 -34 -88 -32 -4 3 163 79 245 112 24 9 41 18
39 21 -3 2 -35 -8 -72 -22 -95 -36 -93 -31 10 19 50 24 99 54 109 65 19 21 19
21 -13 21 -18 0 -30 4 -26 9 3 5 -3 11 -12 14 -10 2 18 7 61 12 77 7 209 3
291 -11 l40 -7 -25 28 c-24 26 -22 25 37 -9 68 -40 89 -45 79 -19 -6 14 -3 14
16 -3 30 -28 68 -47 68 -36 0 5 -6 27 -14 48 -39 113 -29 177 43 256 46 51 48
56 64 155 23 140 22 146 -17 85 l-34 -52 3 62 c1 35 6 80 10 101 l8 39 -54 -7
c-30 -4 -67 -8 -84 -10 -90 -11 -340 -77 -1785 -470 -962 -262 -960 -261
-1017 -218 -31 22 -286 444 -365 603 -75 149 -98 218 -105 310 -13 177 66 290
414 592 105 92 148 117 198 117 17 0 83 -12 147 -27z m-567 -22 c-3 -5 -12
-10 -18 -10 -25 0 -276 -130 -345 -179 -97 -70 -182 -158 -221 -231 -18 -33
-33 -60 -34 -61 -1 0 -60 -11 -132 -24 -116 -20 -124 -23 -75 -25 30 -1 64 -5
74 -9 19 -7 18 -8 -5 -15 -23 -7 -23 -8 -4 -15 16 -7 13 -9 -18 -15 -42 -8
-41 -26 2 -26 47 0 43 -12 -14 -38 -30 -14 -55 -28 -55 -32 0 -4 41 1 92 11
50 11 92 18 93 17 1 -2 7 -46 14 -98 23 -180 82 -320 296 -704 77 -138 134
-251 129 -256 -12 -11 -219 -91 -339 -131 -84 -28 -113 -33 -178 -31 -68 2
-82 5 -99 25 -32 36 -204 300 -301 462 -257 426 -266 572 -49 820 117 134 298
301 377 348 153 90 395 181 565 212 90 16 254 20 245 5z m613 -343 c6 -7 20
-39 33 -72 15 -41 40 -79 85 -126 66 -70 74 -88 94 -214 7 -48 28 -105 66
-184 53 -109 55 -116 37 -129 -29 -22 -143 -9 -242 27 -247 90 -354 257 -293
458 27 87 88 183 143 223 46 33 61 36 77 17z m4339 7 c-3 -3 -12 -4 -19 -1 -8
3 -5 6 6 6 11 1 17 -2 13 -5z m-40 -10 c-3 -3 -12 -4 -19 -1 -8 3 -5 6 6 6 11
1 17 -2 13 -5z m-91 -53 c-7 -11 -56 -21 -56 -10 0 4 12 10 28 12 15 2 28 5
30 6 2 0 1 -3 -2 -8z m-3768 -277 c31 -124 57 -169 147 -256 68 -66 78 -81 69
-95 -29 -47 -120 -16 -198 67 -62 68 -101 141 -117 222 -15 73 -5 121 28 148
36 28 46 16 71 -86z m-1419 17 c-2 -28 -6 -48 -10 -46 -10 7 -21 74 -14 85 15
24 26 6 24 -39z m1766 -10 c28 -11 83 -35 124 -55 134 -64 174 -67 341 -21 65
18 120 6 120 -26 0 -49 -149 -150 -324 -218 -163 -64 -254 -77 -294 -43 -12 9
-30 45 -41 79 -11 34 -39 91 -62 127 -112 179 -66 232 136 157z m2779 -124
c21 -23 48 -53 60 -66 11 -13 51 -44 88 -68 75 -49 91 -68 77 -95 -12 -23 -81
-58 -113 -58 -13 0 -46 16 -72 35 -27 19 -88 62 -135 94 -95 66 -129 102 -129
136 0 28 37 54 93 64 62 12 88 4 131 -42z m-1259 -275 c-16 -10 -67 -38 -112
-61 -53 -28 -83 -49 -83 -60 0 -9 9 -54 20 -101 10 -46 18 -86 16 -87 -1 -2
-42 54 -90 123 -49 69 -86 127 -84 129 5 6 315 72 343 74 16 1 13 -3 -10 -17z
m91 -97 c2 -62 -47 -122 -92 -113 -31 5 -28 48 6 101 26 41 35 48 58 45 22 -2
27 -8 28 -33z m-459 -361 c-3 -3 -12 -4 -19 -1 -8 3 -5 6 6 6 11 1 17 -2 13
-5z"/>
<path d="M5640 4973 c-78 -29 -118 -173 -91 -328 24 -135 119 -391 153 -411 9
-5 21 -20 27 -32 21 -39 20 -21 0 63 -23 93 -21 213 5 263 31 60 62 69 144 46
22 -6 23 -5 18 59 -5 67 -28 161 -47 187 -9 13 -10 13 -6 -1 3 -9 8 -38 11
-65 5 -42 4 -40 -12 21 -24 93 -47 139 -88 175 -34 29 -75 37 -114 23z"/>
<path d="M5017 4801 c-69 -82 -60 -556 10 -579 8 -2 21 16 33 45 49 115 72
143 120 143 58 0 162 -116 257 -285 25 -47 48 -83 50 -81 2 1 -6 28 -16 59
-22 64 -20 73 5 25 10 -18 19 -28 21 -21 6 17 -61 192 -127 331 -157 328 -277
453 -353 363z"/>
<path d="M4370 4155 c-80 -17 -242 -98 -335 -167 -38 -29 -128 -111 -200 -182
-71 -72 -134 -131 -138 -131 -4 0 -12 -7 -17 -15 -13 -21 -12 -3 1 23 37 71
-107 -129 -180 -251 -62 -102 -116 -212 -152 -307 -10 -27 -13 -41 -6 -31 6
11 26 36 44 55 l32 36 -35 -90 c-45 -117 -80 -238 -99 -349 -19 -113 -19 -311
0 -394 36 -154 121 -253 247 -290 362 -108 1496 -189 2262 -162 907 31 1382
151 1481 375 51 114 157 516 194 734 25 148 26 221 5 284 -16 48 -34 62 -34
27 0 -29 -17 -25 -28 8 -10 26 -11 26 -17 5 -5 -15 -22 -27 -55 -38 -36 -12
-47 -20 -44 -33 3 -13 -32 -36 -156 -101 -313 -165 -345 -174 -595 -174 -185
1 -303 16 -363 47 -17 9 -55 51 -86 95 -50 72 -76 101 -76 87 0 -3 20 -39 45
-81 24 -41 43 -75 41 -75 -2 0 -17 5 -34 11 -27 9 -42 32 -112 164 -44 85 -85
157 -90 160 -13 8 12 -49 82 -189 42 -83 54 -117 42 -112 -9 3 -85 25 -168 47
-313 84 -330 89 -411 137 -59 35 -117 84 -226 192 -151 151 -227 242 -394 470
-130 180 -138 187 -213 210 -74 23 -121 24 -212 5z m104 -530 c39 -29 109 -86
154 -125 l84 -73 -7 -206 c-4 -113 -8 -206 -9 -206 0 0 -42 1 -92 3 l-91 3
-108 249 c-60 137 -111 248 -113 245 -2 -2 30 -125 72 -275 42 -149 76 -274
76 -278 0 -4 -49 -6 -108 -4 l-108 3 -89 217 c-49 119 -95 232 -102 251 -32
77 -19 12 37 -185 33 -115 60 -214 60 -221 0 -7 -7 -10 -17 -7 -12 4 -9 -1 7
-15 l25 -21 -111 0 -111 0 -59 165 c-32 90 -60 162 -62 160 -2 -2 1 -74 8
-160 7 -85 11 -158 8 -161 -3 -2 -31 -12 -61 -21 l-56 -16 -39 44 c-103 116
-142 163 -142 171 0 51 187 226 423 396 117 85 246 158 256 146 5 -5 59 -91
120 -191 105 -170 127 -202 116 -170 -18 54 -105 359 -105 368 0 14 53 -17
144 -86z m585 -528 l79 -78 -15 -45 -15 -44 -99 0 c-72 0 -99 3 -99 13 -1 27
55 237 62 235 4 -2 43 -38 87 -81z m-1430 -209 c1 -5 -26 -8 -58 -8 -58 0 -60
1 -100 48 -23 26 -41 51 -41 55 0 4 16 42 36 84 l37 77 63 -124 c35 -69 63
-128 63 -132z m1197 11 c76 -63 98 -71 217 -79 97 -7 118 -12 192 -46 46 -22
84 -44 85 -51 0 -14 -75 -29 -190 -38 -87 -7 -288 6 -440 28 -123 17 -214 14
-293 -11 -57 -18 -81 -21 -163 -15 -80 5 -109 2 -189 -18 -87 -21 -100 -22
-178 -11 -45 7 -126 12 -178 12 -107 0 -135 6 -144 28 -13 34 83 96 227 147
76 27 81 27 240 21 90 -3 205 -9 256 -12 96 -6 118 -2 387 66 104 27 117 25
171 -21z m-1383 -41 c15 -34 25 -63 23 -65 -2 -2 -26 -3 -54 -1 l-50 3 19 63
c11 34 23 62 28 62 4 0 20 -28 34 -62z m1841 27 c3 -9 0 -15 -9 -15 -8 0 -15
7 -15 15 0 8 4 15 9 15 5 0 11 -7 15 -15z m-668 -319 c3 -23 14 -48 24 -58 19
-18 25 -72 36 -327 l7 -154 -144 8 c-79 4 -146 9 -148 11 -2 1 0 111 4 243 l7
239 70 50 c65 46 72 49 103 39 29 -9 35 -15 41 -51z m362 -48 c2 -16 11 -30
22 -33 12 -4 21 -19 25 -38 5 -32 45 -410 45 -428 0 -11 -350 -1 -363 10 -4 4
5 131 20 282 l26 275 111 -20 c107 -20 111 -22 114 -48z m-733 20 c7 -40 24
-85 25 -63 0 5 7 -1 16 -13 14 -21 87 -402 78 -411 -4 -5 -270 17 -323 26
l-34 6 6 66 c3 36 11 139 18 227 l12 161 91 21 c50 11 94 20 98 21 3 1 9 -18
13 -41z m1313 7 c12 -3 22 -12 22 -20 0 -26 22 -64 35 -59 8 4 22 -59 49 -218
20 -123 36 -226 36 -230 0 -5 -63 -8 -140 -8 l-140 0 0 41 c0 53 -19 421 -24
480 l-5 46 72 -14 c40 -7 82 -15 95 -18z m-368 10 c100 -9 110 -12 110 -39 0
-14 9 -27 23 -33 21 -10 25 -26 50 -204 16 -107 31 -211 34 -231 l6 -38 -167
0 -166 0 0 281 c0 262 1 280 18 275 9 -2 51 -7 92 -11z m-1750 -5 l48 0 7 -41
c5 -29 13 -43 26 -46 11 -3 21 -15 24 -27 13 -56 53 -291 51 -294 -2 -1 -29 7
-61 19 -123 46 -205 185 -205 347 l0 55 31 -7 c17 -3 53 -6 79 -6z m414 -16
c3 -9 6 -24 6 -33 0 -10 13 -34 28 -54 23 -29 34 -64 62 -196 18 -89 31 -163
29 -165 -5 -4 -181 18 -273 34 -106 19 -96 -3 -96 209 l0 188 103 15 c135 20
134 20 141 2z m2069 -207 c89 -67 109 -86 117 -116 33 -129 42 -173 34 -181
-5 -4 -89 -11 -186 -15 l-178 -7 0 242 0 242 53 -43 c28 -23 100 -78 160 -122z
m235 -146 c85 -43 211 -85 285 -96 27 -4 45 -11 40 -15 -8 -8 -299 -40 -359
-40 -31 0 -31 1 -38 58 -4 31 -9 74 -13 95 -3 20 -3 37 1 37 4 0 41 -17 84
-39z"/>
<path d="M4853 4104 c-3 -8 -3 -35 1 -60 5 -41 -5 -60 -18 -31 -3 6 -3 1 0
-13 22 -93 215 -341 394 -504 145 -133 309 -219 335 -175 17 27 -13 64 -133
167 -202 173 -276 258 -440 504 -67 100 -94 128 -122 128 -6 0 -13 -7 -17 -16z"/>
<path d="M3705 3699 c-4 -6 -5 -12 -2 -15 2 -3 7 2 10 11 7 17 1 20 -8 4z"/>
<path d="M5703 1773 c9 -2 23 -2 30 0 6 3 -1 5 -18 5 -16 0 -22 -2 -12 -5z"/>
<path d="M5928 1773 c12 -2 30 -2 40 0 9 3 -1 5 -23 4 -22 0 -30 -2 -17 -4z"/>
<path d="M6003 1773 c9 -2 23 -2 30 0 6 3 -1 5 -18 5 -16 0 -22 -2 -12 -5z"/>
<path d="M6755 5055 c-177 -62 -489 -154 -494 -146 -7 10 -107 -13 -124 -28
-4 -4 30 -33 75 -65 46 -31 169 -120 273 -196 133 -98 191 -135 193 -125 6 28
-38 103 -102 172 -119 129 -117 145 30 214 125 58 166 88 188 134 9 18 16 36
16 39 0 6 -38 7 -55 1z"/>
</g>
</svg>
